<svg width="81" height="81" viewBox="0 0 81 81" fill="none" xmlns="http://www.w3.org/2000/svg">
<path d="M75.7065 0.928223H5.70654C2.94512 0.928223 0.706543 3.1668 0.706543 5.92822V75.9282C0.706543 78.6896 2.94512 80.9282 5.70654 80.9282H75.7065C78.468 80.9282 80.7065 78.6896 80.7065 75.9282V5.92822C80.7065 3.1668 78.468 0.928223 75.7065 0.928223Z" fill="#D9E8F1"/>
<g clip-path="url(#clip0)">
<path d="M40.7065 78.4282C61.4172 78.4282 78.2065 61.6389 78.2065 40.9282C78.2065 20.2175 61.4172 3.42822 40.7065 3.42822C19.9959 3.42822 3.20654 20.2175 3.20654 40.9282C3.20654 61.6389 19.9959 78.4282 40.7065 78.4282Z" fill="#D9E8F1"/>
<path d="M55.9764 16.9282H22.1525C21.4618 16.9282 20.9019 17.4882 20.9019 18.1789V63.6776C20.9019 64.3683 21.4618 64.9282 22.1525 64.9282H55.9764C56.6671 64.9282 57.227 64.3683 57.227 63.6776V18.1789C57.227 17.4882 56.6671 16.9282 55.9764 16.9282Z" fill="#49658D"/>
<path d="M29.2637 29.6616H46.7441" stroke="white" stroke-width="1.5" stroke-linecap="round"/>
<path d="M29.2637 37.6616H46.7441" stroke="white" stroke-width="1.5" stroke-linecap="round"/>
<path d="M29.2637 45.6616H46.7441" stroke="white" stroke-width="1.5" stroke-linecap="round"/>
<path d="M29.2637 53.6616H46.7441" stroke="white" stroke-width="1.5" stroke-linecap="round"/>
<path d="M68.4028 31.9487H51.444C50.7533 31.9487 50.1934 32.5087 50.1934 33.1994V50.1582C50.1934 50.8489 50.7533 51.4089 51.444 51.4089H68.4028C69.0936 51.4089 69.6535 50.8489 69.6535 50.1582V33.1994C69.6535 32.5087 69.0936 31.9487 68.4028 31.9487Z" fill="white"/>
<path d="M57.7914 44.5175L55.0988 41.9549C54.9536 41.8173 54.7611 41.7405 54.561 41.7405C54.3609 41.7405 54.1684 41.8173 54.0232 41.9549C53.9525 42.0202 53.896 42.0994 53.8574 42.1875C53.8188 42.2757 53.7988 42.3709 53.7988 42.4671C53.7988 42.5633 53.8188 42.6585 53.8574 42.7467C53.896 42.8348 53.9525 42.914 54.0232 42.9792L57.2412 46.0508C57.3879 46.1884 57.5815 46.265 57.7827 46.265C57.9839 46.265 58.1775 46.1884 58.3242 46.0508L66.4635 38.2968C66.5342 38.2316 66.5907 38.1524 66.6293 38.0642C66.6679 37.9761 66.6879 37.8809 66.6879 37.7846C66.6879 37.6884 66.6679 37.5932 66.6293 37.5051C66.5907 37.4169 66.5342 37.3377 66.4635 37.2725C66.3183 37.1348 66.1258 37.0581 65.9257 37.0581C65.7256 37.0581 65.5331 37.1348 65.3879 37.2725L57.7914 44.5175Z" fill="#49658D"/>
</g>
<defs>
<clipPath id="clip0">
<rect width="75" height="75" fill="white" transform="translate(3.20654 3.42822)"/>
</clipPath>
</defs>
</svg>
