<svg width="81" height="81" viewBox="0 0 81 81" fill="none" xmlns="http://www.w3.org/2000/svg">
<path d="M56.7372 10.9948H56.748L56.7587 10.9946C57.2697 10.9836 57.7642 11.1758 58.1337 11.5289C58.5006 11.8796 58.7145 12.3607 58.7293 12.8678V64.3122C58.7145 64.8193 58.5006 65.3003 58.1337 65.651C57.7642 66.0042 57.2697 66.1963 56.7587 66.1853L56.748 66.1851H56.7372H17.7895H17.7787L17.768 66.1853C17.257 66.1963 16.7625 66.0042 16.393 65.651C16.0261 65.3003 15.8122 64.8193 15.7974 64.3123V12.8677C15.8122 12.3606 16.0261 11.8796 16.393 11.5289C16.7625 11.1758 17.257 10.9836 17.768 10.9946L17.7895 9.99482V10.9948H56.7372Z" stroke="#49658D" stroke-width="2"/>
<path d="M24.8496 20.696H50.0211" stroke="#49658D" stroke-width="2" stroke-linecap="round"/>
<path d="M24.8496 28.696H50.0211" stroke="#49658D" stroke-width="2" stroke-linecap="round"/>
<path d="M24.8496 36.696H50.0211" stroke="#49658D" stroke-width="2" stroke-linecap="round"/>
<path d="M24.8496 44.696H50.0211" stroke="#49658D" stroke-width="2" stroke-linecap="round"/>
<path d="M24.8496 52.696H50.0211" stroke="#49658D" stroke-width="2" stroke-linecap="round"/>
<path d="M42.6324 39.4778H68.8459C69.3626 39.4771 69.8745 39.5783 70.3521 39.7756C70.8297 39.9729 71.2638 40.2624 71.6294 40.6275C71.9951 40.9927 72.2851 41.4264 72.483 41.9037C72.681 42.3811 72.7828 42.8928 72.7828 43.4095V69.623C72.7835 70.1402 72.6821 70.6524 72.4845 71.1304C72.2869 71.6083 71.997 72.0426 71.6312 72.4083C71.2655 72.7741 70.8312 73.064 70.3533 73.2616C69.8753 73.4592 69.3631 73.5606 68.8459 73.5599H42.6324C42.1157 73.5599 41.604 73.4581 41.1266 73.2601C40.6493 73.0622 40.2156 72.7722 39.8504 72.4065C39.4853 72.0409 39.1958 71.6068 38.9985 71.1292C38.8012 70.6516 38.7 70.1397 38.7007 69.623V43.4095C38.7007 42.3668 39.1149 41.3667 39.8523 40.6294C40.5896 39.892 41.5897 39.4778 42.6324 39.4778V39.4778Z" fill="#49658D"/>
<path d="M66.3432 47.1843C66.5921 47.4331 66.7896 47.7284 66.9243 48.0535C67.059 48.3786 67.1283 48.727 67.1283 49.0789C67.1283 49.4308 67.059 49.7792 66.9243 50.1043C66.7896 50.4294 66.5921 50.7248 66.3432 50.9735L64.9942 52.3277L60.3018 47.6405L61.656 46.2863C62.1585 45.7839 62.84 45.5017 63.5506 45.5017C64.2611 45.5017 64.9426 45.7839 65.4452 46.2863L66.3432 47.1843Z" fill="#49658D"/>
<path d="M64.9914 52.3304L52.7296 64.5935L48.041 59.9049L60.3041 47.6418L64.9914 52.3304Z" fill="#49658D"/>
<path d="M48.0386 59.9011L52.7272 64.5897L52.6831 64.6338L46.2036 66.4299L47.9997 59.9504L48.0386 59.9011Z" fill="#49658D"/>
<path d="M65.987 45.7435C65.3403 45.0984 64.4641 44.7361 63.5507 44.7361C62.6372 44.7361 61.7611 45.0984 61.1144 45.7435L47.4543 59.4035C47.3608 59.497 47.2929 59.6131 47.2573 59.7405L45.4612 66.22C45.4252 66.3505 45.4244 66.4883 45.4589 66.6192C45.4935 66.7502 45.5622 66.8696 45.6579 66.9654C45.7537 67.0612 45.8731 67.1298 46.0041 67.1644C46.135 67.1989 46.2728 67.1981 46.4034 67.1621L52.8828 65.366C53.0103 65.3305 53.1263 65.2626 53.2198 65.169L53.2625 65.1249L66.885 51.5141C67.2049 51.1943 67.4586 50.8145 67.6317 50.3966C67.8048 49.9787 67.8939 49.5308 67.8939 49.0785C67.8939 48.6261 67.8048 48.1782 67.6317 47.7603C67.4586 47.3424 67.2049 46.9627 66.885 46.6428L65.987 45.7435ZM48.4016 61.3461L51.2785 64.2269L47.2949 65.331L48.4016 61.3461ZM52.7273 64.5858L53.2263 65.0848L52.7273 64.5858ZM52.7273 63.5038L49.1221 59.8986L60.3019 48.7189L63.9071 52.324L52.7273 63.5038ZM65.8017 50.4281L64.9891 51.2407L61.3865 47.6381L62.1991 46.8255C62.5584 46.4671 63.0451 46.2659 63.5526 46.2659C64.0601 46.2659 64.5469 46.4671 64.9062 46.8255L65.8042 47.7249C65.982 47.9025 66.123 48.1134 66.2192 48.3456C66.3154 48.5777 66.3649 48.8265 66.3649 49.0778C66.3649 49.3291 66.3154 49.5779 66.2192 49.8101C66.123 50.0422 65.982 50.2531 65.8042 50.4307L65.8017 50.4281Z" fill="white"/>
</svg>
