<svg width="81" height="81" viewBox="0 0 81 81" fill="none" xmlns="http://www.w3.org/2000/svg">
<path fill-rule="evenodd" clip-rule="evenodd" d="M31.8874 46.8389C32.2794 47.228 32.2816 47.8612 31.8925 48.2531L21.3909 58.8298C21.0018 59.2217 20.3686 59.224 19.9767 58.8349C19.5848 58.4457 19.5826 57.8126 19.9717 57.4207L30.4732 46.8439C30.8624 46.452 31.4955 46.4497 31.8874 46.8389Z" fill="#49658D"/>
<path fill-rule="evenodd" clip-rule="evenodd" d="M19.4815 68.0933C19.091 67.7028 19.091 67.0696 19.4815 66.6791L29.2006 56.9601C29.5911 56.5696 30.2242 56.5696 30.6148 56.9601C31.0053 57.3506 31.0053 57.9838 30.6148 58.3743L20.8957 68.0933C20.5052 68.4839 19.872 68.4839 19.4815 68.0933Z" fill="#49658D"/>
<path d="M66.7114 10.6947C66.3147 10.1447 65.7314 9.80093 65.0547 9.68635C64.4714 9.59468 63.8647 9.70927 63.3514 9.98427L21.8181 33.5197C21.2114 33.8405 20.7914 34.3676 20.6047 35.0093C20.4181 35.6509 20.4881 36.3155 20.8147 36.9114C21.0947 37.3926 21.5147 37.7822 22.0514 38.0114L31.5714 41.953C31.7114 41.9989 31.8747 41.9759 31.9914 41.8843L52.8339 24.1521C52.9716 24.0348 53.1608 24.2167 53.049 24.359L36.3547 45.6197C36.3081 45.6884 36.2614 45.7801 36.2614 45.8489V52.9301C36.2381 54.3051 37.3347 55.4509 38.7347 55.4968C38.7581 55.4968 38.7814 55.4968 38.8047 55.4968C39.5747 55.4968 40.2747 55.1759 40.7647 54.5801L46.2009 48.0873C46.2429 48.0371 46.3125 48.02 46.373 48.0449L57.1681 52.4947C57.7981 52.7468 58.4981 52.7468 59.1281 52.4947C59.7581 52.2426 60.2481 51.7614 60.5047 51.1426C60.5747 50.9593 60.6214 50.7759 60.6681 50.5926L67.1314 12.5739C67.2481 11.8864 67.1081 11.2218 66.7114 10.6947Z" fill="#49658D"/>
</svg>
