<svg width="81" height="80" viewBox="0 0 81 80" fill="none" xmlns="http://www.w3.org/2000/svg">
<circle cx="40.8344" cy="28.7264" r="10.4066" fill="#49658D" stroke="#49658D" stroke-width="2"/>
<path fill-rule="evenodd" clip-rule="evenodd" d="M60.6484 40.8677C60.6484 40.3154 61.0962 39.8677 61.6484 39.8677L65.1173 39.8677C65.6696 39.8677 66.1173 40.3154 66.1173 40.8677C66.1173 41.42 65.6696 41.8677 65.1173 41.8677L61.6484 41.8677C61.0962 41.8677 60.6484 41.42 60.6484 40.8677Z" fill="#49658D"/>
<path fill-rule="evenodd" clip-rule="evenodd" d="M15.5562 40.8677C15.5562 40.3154 16.0039 39.8677 16.5562 39.8677L20.025 39.8677C20.5773 39.8677 21.025 40.3154 21.025 40.8677C21.025 41.42 20.5773 41.8677 20.025 41.8677L16.5562 41.8677C16.0039 41.8677 15.5562 41.42 15.5562 40.8677Z" fill="#49658D"/>
<path fill-rule="evenodd" clip-rule="evenodd" d="M54.4692 20.7263C54.4692 20.174 54.917 19.7263 55.4692 19.7263C60.4398 19.7263 64.4692 23.7558 64.4692 28.7263C64.4692 33.6969 60.4398 37.7263 55.4692 37.7263C54.917 37.7263 54.4692 37.2786 54.4692 36.7263C54.4692 36.174 54.917 35.7263 55.4692 35.7263C59.3352 35.7263 62.4692 32.5923 62.4692 28.7263C62.4692 24.8603 59.3352 21.7263 55.4692 21.7263C54.917 21.7263 54.4692 21.2786 54.4692 20.7263Z" fill="#49658D"/>
<path fill-rule="evenodd" clip-rule="evenodd" d="M64.1143 40.8674C64.1143 40.3151 64.562 39.8674 65.1143 39.8674C70.423 39.8674 74.7266 44.171 74.7266 49.4798C74.7266 50.0321 74.2789 50.4798 73.7266 50.4798C73.1744 50.4798 72.7266 50.0321 72.7266 49.4798C72.7266 45.2756 69.3185 41.8674 65.1143 41.8674C64.562 41.8674 64.1143 41.4197 64.1143 40.8674Z" fill="#49658D"/>
<path fill-rule="evenodd" clip-rule="evenodd" d="M73.7271 48.4795C74.2793 48.4795 74.7271 48.9272 74.7271 49.4795L74.7271 61.6806C74.7271 62.2329 74.2793 62.6806 73.7271 62.6806C73.1748 62.6806 72.7271 62.2329 72.7271 61.6806L72.7271 49.4795C72.7271 48.9272 73.1748 48.4795 73.7271 48.4795Z" fill="#49658D"/>
<path fill-rule="evenodd" clip-rule="evenodd" d="M26.2261 20.7263C26.2261 20.174 25.7784 19.7263 25.2261 19.7263C20.2565 19.7263 16.2283 23.756 16.2283 28.7263C16.2283 33.6966 20.2565 37.7263 25.2261 37.7263C25.7784 37.7263 26.2261 37.2786 26.2261 36.7263C26.2261 36.174 25.7784 35.7263 25.2261 35.7263C21.3616 35.7263 18.2283 32.5926 18.2283 28.7263C18.2283 24.8601 21.3616 21.7263 25.2261 21.7263C25.7784 21.7263 26.2261 21.2786 26.2261 20.7263Z" fill="#49658D"/>
<path fill-rule="evenodd" clip-rule="evenodd" d="M17.5586 40.8674C17.5586 40.3151 17.1109 39.8674 16.5586 39.8674C11.2509 39.8674 6.94858 44.1713 6.94858 49.4798C6.94858 50.0321 7.3963 50.4798 7.94858 50.4798C8.50087 50.4798 8.94858 50.0321 8.94858 49.4798C8.94858 45.2754 12.356 41.8674 16.5586 41.8674C17.1109 41.8674 17.5586 41.4197 17.5586 40.8674Z" fill="#49658D"/>
<path fill-rule="evenodd" clip-rule="evenodd" d="M7.94482 48.4795C8.49711 48.4795 8.94482 48.9272 8.94482 49.4795L8.94482 61.6805C8.94482 62.2328 8.49711 62.6805 7.94482 62.6805C7.39254 62.6805 6.94482 62.2328 6.94482 61.6805L6.94482 49.4795C6.94482 48.9272 7.39254 48.4795 7.94482 48.4795Z" fill="#49658D"/>
<path fill-rule="evenodd" clip-rule="evenodd" d="M19.022 53.0084C19.022 47.6996 23.3256 43.396 28.6344 43.396H53.0361C58.3449 43.396 62.6485 47.6996 62.6485 53.0084H62.6484V53.0084V61.7695C62.6484 62.3218 62.2007 62.7695 61.6484 62.7695C61.6481 62.7695 61.6478 62.7695 61.6475 62.7695V62.7702H20.0239V62.7695C20.0233 62.7695 20.0226 62.7695 20.022 62.7695C19.4697 62.7695 19.022 62.3218 19.022 61.7695V53.0084V53.0084Z" fill="#49658D"/>
</svg>
