<svg width="81" height="80" viewBox="0 0 81 80" fill="none" xmlns="http://www.w3.org/2000/svg">
<path d="M75.7065 0H5.70654C2.94512 0 0.706543 2.23858 0.706543 5V75C0.706543 77.7614 2.94512 80 5.70654 80H75.7065C78.468 80 80.7065 77.7614 80.7065 75V5C80.7065 2.23858 78.468 0 75.7065 0Z" fill="#D9E8F1"/>
<g clip-path="url(#clip0)">
<path d="M40.7065 77.5C61.4172 77.5 78.2065 60.7107 78.2065 40C78.2065 19.2893 61.4172 2.5 40.7065 2.5C19.9959 2.5 3.20654 19.2893 3.20654 40C3.20654 60.7107 19.9959 77.5 40.7065 77.5Z" fill="#D9E8F1"/>
<path d="M63.7892 23.0581H18.6242C16.6472 23.0581 15.0444 24.6608 15.0444 26.6379V54.3621C15.0444 56.3392 16.6472 57.9419 18.6242 57.9419H63.7892C65.7663 57.9419 67.369 56.3392 67.369 54.3621V26.6379C67.369 24.6608 65.7663 23.0581 63.7892 23.0581Z" fill="#49658D"/>
<path d="M46.3574 37.5H61.2228" stroke="white" stroke-width="1.5" stroke-linecap="round"/>
<path d="M46.3579 32.5H61.2233" stroke="white" stroke-width="1.5" stroke-linecap="round"/>
<path d="M46.3574 42.5H61.2228" stroke="white" stroke-width="1.5" stroke-linecap="round"/>
<path d="M46.3574 47.5H61.2228" stroke="white" stroke-width="1.5" stroke-linecap="round"/>
<path d="M31.0173 30.8096C32.1861 30.8148 33.3169 31.2249 34.2173 31.9702C35.1176 32.7155 35.7318 33.7499 35.9552 34.8971C36.1786 36.0443 35.9974 37.2335 35.4425 38.2622C34.8876 39.2909 33.9933 40.0954 32.9119 40.5388C31.8304 40.9821 30.6287 41.0369 29.5114 40.6938C28.3942 40.3508 27.4303 39.631 26.7841 38.6571C26.1379 37.6832 25.8492 36.5154 25.9673 35.3526C26.0853 34.1898 26.6028 33.1038 27.4315 32.2797C28.3848 31.334 29.6745 30.8052 31.0173 30.8096" fill="white"/>
<path d="M21.3267 50.1892V47.1607C21.3248 45.8972 21.8247 44.6845 22.7167 43.7895C23.6086 42.8944 24.8194 42.3902 26.083 42.3877H35.9513C37.2148 42.3902 38.4255 42.8945 39.3172 43.7896C40.209 44.6847 40.7087 45.8973 40.7064 47.1607V50.1904" fill="white"/>
</g>
<defs>
<clipPath id="clip0">
<rect width="75" height="75" fill="white" transform="translate(3.20654 2.5)"/>
</clipPath>
</defs>
</svg>
